<svg aria-hidden="true" style="position: absolute; width: 0; height: 0; overflow: hidden;" version="1.1" xmlns="http://www.w3.org/2000/svg" xmlns:xlink="http://www.w3.org/1999/xlink">
<defs>
<symbol id="icon-documents" viewBox="0 0 20 20">
<path d="M19.398 7.415l-7.444-1.996-1.303-4.861c-0.109-0.406-0.545-0.642-0.973-0.529l-9.076 2.432c-0.428 0.114-0.686 0.538-0.577 0.944l3.23 12.051c0.109 0.406 0.544 0.643 0.971 0.527l3.613-0.967-0.492 1.838c-0.109 0.406 0.149 0.83 0.577 0.943l8.11 2.174c0.428 0.115 0.862-0.121 0.972-0.529l2.97-11.084c0.108-0.406-0.15-0.83-0.578-0.943zM1.633 3.631l7.83-2.096 2.898 10.818-7.83 2.096-2.898-10.818zM15.678 18.463l-6.814-1.863 0.536-2.002 3.901-1.047c0.428-0.113 0.688-0.537 0.578-0.943l-1.508-5.627 5.947 1.631-2.64 9.851z"></path>
</symbol>
<symbol id="icon-film" viewBox="0 0 32 32">
<path d="M0 4v24h32v-24h-32zM6 26h-4v-4h4v4zM6 18h-4v-4h4v4zM6 10h-4v-4h4v4zM24 26h-16v-20h16v20zM30 26h-4v-4h4v4zM30 18h-4v-4h4v4zM30 10h-4v-4h4v4zM12 10v12l8-6z"></path>
</symbol>
<symbol id="icon-folder-plus" viewBox="0 0 32 32">
<path d="M18 8l-4-4h-14v26h32v-22h-14zM22 22h-4v4h-4v-4h-4v-4h4v-4h4v4h4v4z"></path>
</symbol>
</defs>
</svg>
